<svg xmlns="http://www.w3.org/2000/svg" xmlns:xlink="http://www.w3.org/1999/xlink" viewBox="0 0 4374 1472"><defs><style>.cls-1{font-size:903.86px;stroke:#0eb56f;stroke-miterlimit:10;stroke-width:10px;letter-spacing:-0.05em;}.cls-1,.cls-8{fill:#0eb56f;}.cls-1,.cls-11{font-family:Sk-Modernist-Regular, Sk-Modernist;}.cls-2{letter-spacing:-0.02em;}.cls-3{letter-spacing:0em;}.cls-4{letter-spacing:-0.02em;}.cls-5{letter-spacing:-0.02em;}.cls-6{letter-spacing:-0.03em;}.cls-7{fill:#259361;}.cls-9{fill:#1ed760;}.cls-10{fill:url(#linear-gradient);}.cls-11{font-size:395.51px;fill:#fff;letter-spacing:0.02em;}.cls-12{letter-spacing:-0.01em;}.cls-13{letter-spacing:0.01em;}.cls-14{letter-spacing:0.03em;}</style><linearGradient id="linear-gradient" x1="2845.37" y1="1126.16" x2="4225.24" y2="1126.16" gradientUnits="userSpaceOnUse"><stop offset="0" stop-color="#1ed760"/><stop offset="1" stop-color="#0eb56f"/></linearGradient></defs><g id="Layer_3" data-name="Layer 3"><text class="cls-1" transform="translate(1158.39 848.66)">P<tspan class="cls-2" x="496.22" y="0">a</tspan><tspan class="cls-3" x="1014.13" y="0">d</tspan><tspan class="cls-4" x="1566.37" y="0">h</tspan><tspan class="cls-5" x="2062.59" y="0">a</tspan><tspan class="cls-6" x="2580.5" y="0">o</tspan></text><path class="cls-7" d="M627.67,414.82h0a251,251,0,0,1,251,251v0a0,0,0,0,1,0,0h-251a0,0,0,0,1,0,0v-251A0,0,0,0,1,627.67,414.82Z" transform="translate(1506.31 1080.62) rotate(-180)"/><circle class="cls-8" cx="627.67" cy="414.82" r="250.97"/><path class="cls-8" d="M125.72,414.82h251a0,0,0,0,1,0,0v251a251,251,0,0,1-251,251h0a0,0,0,0,1,0,0V414.82a0,0,0,0,1,0,0Z"/><circle class="cls-9" cx="376.7" cy="414.82" r="250.97"/><rect class="cls-10" x="2845.37" y="914.78" width="1379.87" height="422.76" rx="21.67"/><text class="cls-11" transform="translate(3106.65 1262.95)">B<tspan class="cls-12" x="266.96" y="0">e</tspan><tspan class="cls-13" x="488.05" y="0">t</tspan><tspan class="cls-14" x="636.76" y="0">a</tspan></text></g></svg>